<?xml version="1.0" standalone="no"?>
<!DOCTYPE svg PUBLIC "-//W3C//DTD SVG 20010904//EN"
 "http://www.w3.org/TR/2001/REC-SVG-20010904/DTD/svg10.dtd">
<svg version="1.0" xmlns="http://www.w3.org/2000/svg"
 width="270.000000pt" height="270.000000pt" viewBox="0 0 270.000000 270.000000"
 preserveAspectRatio="xMidYMid meet">
<metadata>
Created by potrace 1.14, written by Peter Selinger 2001-2017
</metadata>
<g transform="translate(0.000000,270.000000) scale(0.100000,-0.100000)"
fill="#000000" stroke="none">
<path d="M1361 2478 c-1 -10 -6 -18 -12 -18 -5 0 -7 -4 -4 -10 3 -5 -3 -17
-14 -27 -11 -9 -18 -20 -15 -25 3 -4 -5 -8 -18 -8 -13 0 -33 -1 -45 -1 -24 0
-41 -39 -16 -39 8 0 11 -4 8 -10 -3 -5 0 -10 8 -10 21 0 43 -75 26 -86 -5 -2
-5 -12 -2 -21 5 -12 3 -14 -8 -9 -8 4 -5 0 5 -8 18 -15 22 -14 43 6 13 12 23
18 23 14 0 -5 6 -4 13 2 10 9 25 5 60 -14 26 -13 48 -23 48 -22 7 17 6 58 -2
58 -5 0 -9 5 -9 11 0 5 4 8 8 5 5 -3 9 1 9 9 0 8 -5 11 -10 8 -5 -3 -7 0 -5 8
3 8 12 13 19 11 8 -2 11 0 7 3 -10 11 10 45 26 45 8 0 13 8 12 18 -2 9 -9 17
-17 17 -8 0 -17 5 -21 10 -5 6 -8 5 -8 -2 0 -18 -31 -4 -57 26 -12 13 -22 27
-21 30 2 19 -3 31 -11 27 -5 -4 -12 0 -14 6 -3 8 -6 6 -6 -4z"/>
<path d="M384 2125 c-4 -8 -12 -15 -19 -15 -7 0 -15 -5 -17 -11 -3 -8 -15 -6
-41 4 -23 10 -37 12 -37 5 0 -7 -5 -6 -14 1 -12 10 -13 8 -9 -8 3 -12 8 -19
12 -17 15 10 3 -49 -15 -69 -31 -35 -25 -58 16 -61 48 -2 52 -3 46 -12 -3 -5
4 -14 14 -22 10 -8 17 -17 14 -22 -3 -4 0 -8 6 -8 6 0 17 15 25 34 14 32 45
53 71 48 7 -1 14 7 17 17 3 11 2 20 -2 19 -19 -2 -28 5 -44 32 -10 17 -14 30
-10 30 12 0 14 38 2 45 -5 4 -7 11 -4 16 4 5 4 9 0 9 -3 0 -8 -7 -11 -15z"/>
<path d="M2440 2132 c0 -7 -4 -12 -10 -12 -5 0 -19 -9 -29 -19 -11 -11 -28
-18 -38 -16 -10 2 -18 4 -18 5 0 1 -12 3 -26 4 l-27 3 17 -31 c24 -44 33 -68
21 -61 -9 6 -12 -2 -9 -22 0 -3 -6 -10 -15 -15 -8 -5 -13 -15 -9 -24 4 -10 9
-12 18 -4 9 8 14 7 18 -2 4 -10 6 -10 6 1 1 11 4 11 18 0 9 -8 14 -9 10 -3 -3
6 0 11 8 11 8 0 13 -3 12 -6 -1 -4 9 -18 22 -31 13 -14 20 -18 16 -10 -8 13
-7 13 8 1 15 -12 17 -11 19 10 0 13 1 30 1 37 -1 6 6 12 14 12 8 0 12 3 10 8
-3 4 1 13 9 20 8 7 14 8 14 2 0 -5 8 -2 18 8 17 16 16 18 -13 31 -16 8 -33 13
-37 13 -4 -1 -5 5 -2 13 4 8 2 15 -3 15 -5 0 -10 14 -11 32 -3 30 -12 54 -12
30z"/>
<path d="M409 1682 c-8 -2 -19 -11 -26 -19 -6 -8 -19 -16 -29 -17 -20 -3 -29
-36 -9 -36 8 0 19 -8 24 -17 6 -10 11 -14 11 -10 0 4 6 2 14 -5 8 -7 12 -16 9
-20 -2 -4 3 -5 11 -2 11 4 16 0 16 -10 0 -9 8 -16 20 -16 11 0 20 -7 20 -16 0
-8 5 -12 10 -9 6 3 10 1 10 -4 0 -6 7 -11 16 -11 8 0 12 -4 9 -10 -3 -5 1 -10
9 -10 9 0 16 -4 16 -9 0 -5 9 -11 21 -14 12 -3 18 -10 14 -17 -4 -6 -1 -9 7
-8 7 2 12 -3 10 -10 -1 -8 2 -11 9 -7 6 4 19 -2 30 -14 11 -12 24 -21 30 -21
6 0 7 -4 4 -10 -3 -5 -2 -10 4 -10 5 0 8 -7 7 -15 -3 -23 -15 -29 -22 -11 -3
9 -10 13 -15 10 -5 -3 -9 0 -9 5 0 6 -7 11 -16 11 -8 0 -12 5 -9 10 3 6 -1 10
-9 10 -8 0 -19 7 -24 16 -5 9 -13 17 -18 17 -5 1 -8 5 -7 9 2 4 -7 10 -20 14
-12 4 -31 16 -43 27 -12 11 -24 18 -27 16 -4 -2 -14 6 -22 19 -9 12 -23 22
-31 22 -8 0 -12 5 -9 10 3 6 -1 10 -9 10 -9 0 -16 5 -16 10 0 6 -7 10 -16 10
-8 0 -13 4 -9 9 3 5 -4 12 -15 16 -11 3 -20 11 -20 16 0 6 -4 7 -10 4 -5 -3
-10 -1 -10 4 0 18 -48 12 -59 -6 -8 -14 -11 -15 -11 -3 0 12 -3 11 -11 -2 -5
-10 -16 -18 -23 -18 -7 0 -13 -7 -13 -15 0 -8 2 -13 5 -11 5 5 24 -9 50 -36 9
-10 20 -18 25 -18 14 0 36 -27 29 -35 -4 -5 -2 -5 5 -1 7 4 21 -2 33 -14 11
-11 22 -20 25 -20 27 0 29 -1 15 -10 -13 -9 -13 -10 1 -10 8 0 25 -9 37 -20
12 -12 22 -17 22 -13 0 4 12 -8 26 -25 15 -18 33 -32 40 -32 7 0 18 -8 23 -17
6 -10 11 -14 11 -9 0 6 14 -3 30 -19 17 -16 30 -25 30 -21 0 4 7 0 16 -9 9 -8
13 -22 10 -30 -6 -17 -47 -11 -62 10 -6 8 -15 15 -19 15 -4 0 -16 10 -26 22
-11 11 -19 18 -19 15 0 -3 -12 5 -26 18 -15 14 -33 25 -41 25 -8 0 -12 3 -10
8 5 7 -22 37 -33 37 -3 0 -4 4 -2 9 2 5 -4 6 -12 3 -16 -6 -40 24 -31 37 3 3
-1 2 -7 -4 -15 -13 -31 -13 -23 0 3 5 -5 15 -19 21 -14 7 -23 16 -20 20 3 5
-2 9 -10 9 -9 0 -16 5 -16 11 0 5 -3 8 -7 6 -11 -6 -43 30 -35 39 4 4 -1 4
-10 1 -10 -3 -21 0 -25 7 -12 20 -51 26 -57 9 -3 -8 -10 -12 -15 -9 -5 3 -12
-1 -15 -9 -3 -8 -9 -15 -13 -14 -4 1 -16 1 -26 0 -15 -1 -15 -3 3 -21 11 -11
25 -20 31 -20 5 0 7 -4 4 -10 -3 -5 5 -12 19 -16 17 -4 23 -11 19 -22 -5 -11
-3 -13 6 -7 9 5 21 -2 36 -19 12 -14 25 -23 29 -19 3 3 6 1 6 -6 0 -7 5 -9 10
-6 6 3 10 1 10 -5 0 -6 11 -15 25 -22 13 -6 22 -15 19 -19 -3 -5 2 -9 10 -9 9
0 16 -4 16 -10 0 -5 7 -10 15 -10 9 0 18 -7 21 -15 3 -8 14 -17 25 -20 10 -4
19 -13 19 -20 0 -9 6 -12 17 -8 11 4 14 3 9 -5 -4 -7 -1 -12 7 -12 22 0 61
-46 46 -55 -8 -5 -10 -4 -5 3 4 7 2 12 -3 12 -6 0 -9 -10 -7 -22 1 -13 6 -22
9 -20 26 9 47 10 53 1 3 -5 11 -6 17 -2 19 12 57 11 57 -1 0 -6 4 -5 9 2 9 15
20 15 38 1 6 -6 14 -6 17 -1 6 10 45 10 62 -1 6 -3 14 -3 18 1 11 11 50 9 58
-3 5 -7 8 -6 8 1 0 7 17 10 45 8 24 -2 47 1 50 6 4 6 11 7 17 4 7 -4 8 -2 4 5
-4 6 -9 23 -12 37 -3 19 -1 24 8 18 10 -5 11 -4 1 7 -19 19 -17 50 2 43 8 -4
22 -1 30 6 10 8 15 9 15 2 0 -6 7 -9 15 -6 8 4 12 11 9 16 -4 6 4 5 16 -2 12
-7 25 -8 29 -4 10 15 53 16 45 1 -4 -6 3 -3 16 8 13 11 20 14 16 7 -7 -12 -4
-12 14 -2 12 6 28 9 36 6 10 -4 12 -2 8 6 -5 8 -2 9 9 5 9 -3 19 -2 22 4 4 5
11 7 16 4 5 -4 9 -1 9 6 0 7 3 9 7 6 3 -4 13 -1 21 6 13 10 14 9 7 -3 -8 -13
-7 -13 9 0 10 8 25 15 34 17 9 1 18 7 20 13 2 5 8 8 13 4 5 -3 9 0 9 6 0 6 4
9 9 5 5 -3 12 -1 16 5 4 6 11 8 16 5 5 -3 6 2 2 11 -6 15 -3 15 28 -2 19 -10
36 -22 37 -27 2 -4 8 -5 13 -1 5 3 9 0 9 -7 0 -7 3 -10 6 -6 3 3 21 -3 40 -14
19 -10 43 -19 54 -19 11 0 20 -4 20 -8 0 -7 20 -11 73 -13 9 0 15 -4 12 -9 -3
-6 1 -7 10 -3 10 3 21 0 26 -8 7 -12 9 -12 9 1 0 13 1 13 10 0 7 -11 10 -11
10 -2 0 9 5 10 18 4 9 -5 25 -8 34 -7 10 2 20 -1 24 -6 3 -5 13 -5 25 1 11 6
19 7 19 1 0 -5 7 -8 16 -7 9 0 19 -5 22 -13 3 -10 0 -11 -9 -5 -12 7 -12 5 0
-9 10 -13 10 -17 1 -17 -9 0 -9 -4 1 -17 8 -10 9 -14 2 -10 -6 4 -14 3 -18 -3
-3 -5 -1 -10 4 -10 6 0 11 -8 11 -18 0 -17 13 -18 198 -18 126 0 200 4 204 10
5 7 8 7 8 -1 0 -7 7 -13 15 -13 8 0 15 5 15 11 0 5 4 8 8 5 5 -3 9 1 9 8 0 8
-6 12 -14 9 -11 -4 -12 -1 -2 20 7 15 15 24 20 22 4 -3 20 6 35 20 14 13 31
22 37 18 6 -4 8 0 4 11 -4 10 -3 15 3 11 6 -3 10 -1 10 6 0 7 3 9 6 6 4 -4 15
3 25 15 11 11 19 17 19 13 0 -4 9 2 20 15 11 13 20 19 20 15 0 -4 9 2 20 15
11 13 20 20 20 16 0 -4 11 5 25 20 14 15 25 24 25 20 0 -4 11 4 25 18 13 13
33 27 44 31 12 3 20 12 18 18 -1 7 3 11 10 10 6 -1 14 4 17 12 3 9 -1 15 -9
15 -8 0 -15 5 -15 12 0 6 -3 9 -6 5 -3 -3 -23 3 -43 14 -20 11 -37 15 -39 9
-2 -5 -10 -10 -18 -10 -8 0 -14 -7 -14 -16 0 -8 -4 -13 -10 -9 -5 3 -18 -3
-29 -14 -11 -11 -22 -17 -25 -14 -3 4 -6 1 -6 -6 0 -7 -4 -9 -10 -6 -6 3 -7
-1 -4 -9 4 -11 0 -16 -15 -16 -12 0 -21 -6 -21 -15 0 -9 -6 -12 -15 -8 -10 3
-15 0 -13 -8 2 -8 -3 -13 -9 -11 -7 1 -13 -2 -13 -8 0 -5 -7 -10 -16 -10 -8 0
-13 -4 -9 -9 3 -5 -4 -12 -15 -16 -11 -3 -20 -11 -20 -16 0 -6 -4 -7 -10 -4
-5 3 -10 -1 -10 -9 0 -10 -6 -13 -15 -10 -10 4 -15 0 -15 -12 0 -9 -3 -15 -6
-11 -3 3 -14 -3 -25 -14 -11 -11 -25 -17 -31 -13 -6 4 -8 3 -5 -3 9 -14 -40
-46 -56 -36 -9 5 -9 4 0 -8 9 -11 7 -14 -13 -15 -13 -1 -21 2 -18 7 3 5 0 9
-5 9 -6 0 -11 5 -11 10 0 6 6 9 13 8 6 -2 11 2 10 9 -2 8 4 10 14 6 10 -4 14
-2 10 4 -8 12 20 26 34 18 5 -4 6 1 3 9 -4 10 -1 16 8 16 8 0 29 12 45 28 64
57 85 72 95 65 6 -3 8 -1 5 4 -4 6 1 17 10 24 14 12 16 12 9 -1 -5 -8 6 1 24
20 19 19 34 34 34 32 1 -2 9 0 18 3 10 4 15 11 12 16 -3 5 4 9 15 9 12 0 21 5
21 10 0 6 13 18 29 28 33 20 28 42 -12 64 -29 15 -85 19 -94 5 -4 -6 -1 -7 8
-3 8 4 3 -2 -11 -13 -14 -11 -31 -21 -38 -21 -8 0 -10 -5 -6 -12 5 -8 2 -9
-12 -4 -10 4 -15 4 -12 0 11 -10 -20 -36 -33 -28 -7 4 -9 3 -6 -3 4 -6 0 -14
-9 -17 -8 -3 -12 -11 -9 -16 4 -6 3 -9 -2 -8 -16 4 -53 -14 -48 -23 6 -8 -9
-13 -28 -10 -5 1 -5 -3 -2 -9 4 -7 -2 -14 -14 -17 -12 -3 -21 -9 -21 -14 0 -5
-6 -9 -14 -9 -8 0 -18 -10 -21 -21 -6 -17 -9 -19 -16 -8 -7 11 -9 11 -9 -2 0
-9 -7 -20 -16 -23 -10 -4 -13 -2 -9 7 4 6 0 3 -9 -7 -8 -10 -13 -24 -10 -30 3
-6 -1 -3 -9 7 -14 16 -13 22 1 47 9 15 22 26 28 23 7 -2 15 5 19 16 3 11 10
20 15 18 5 -1 16 7 25 18 9 11 13 13 9 5 -4 -8 3 -5 15 8 12 12 27 19 33 16 6
-4 8 -3 5 3 -3 5 3 17 14 26 10 9 19 14 19 10 0 -4 9 2 19 13 10 10 36 33 57
51 64 51 90 75 77 68 -7 -3 -13 -1 -13 4 0 6 -5 11 -11 11 -6 0 -23 8 -37 19
-30 21 -68 14 -79 -14 -3 -9 -12 -14 -19 -11 -8 3 -14 -1 -14 -8 0 -8 -12 -21
-26 -31 -24 -15 -36 -25 -86 -67 -12 -10 -25 -18 -30 -18 -4 0 -7 -3 -7 -7 3
-20 -2 -26 -11 -13 -8 13 -10 12 -10 -4 0 -11 -3 -16 -7 -13 -3 4 -13 -2 -20
-13 -8 -11 -19 -18 -24 -15 -5 4 -9 -1 -9 -9 0 -8 -5 -18 -12 -22 -7 -5 -9 -2
-4 7 4 8 -2 3 -13 -10 -12 -13 -21 -20 -21 -16 0 4 -8 1 -17 -6 -11 -10 -14
-10 -9 -1 5 8 0 12 -16 13 -43 3 -83 7 -85 9 -2 1 -12 3 -22 4 -11 0 -23 5
-28 10 -5 5 -2 6 6 1 10 -6 12 -4 7 4 -6 9 -11 9 -23 0 -9 -8 -17 -9 -21 -3
-4 5 -17 9 -29 8 -13 -1 -23 3 -23 9 0 6 -3 8 -6 4 -9 -8 -157 48 -241 92 -40
21 -73 36 -73 32 0 -11 -52 -31 -63 -24 -6 4 -7 1 -2 -7 6 -10 4 -12 -9 -7
-10 4 -15 3 -11 -3 3 -6 -1 -10 -9 -10 -9 0 -16 -4 -16 -10 0 -5 -7 -7 -15 -4
-8 4 -15 1 -15 -6 0 -6 -4 -8 -10 -5 -5 3 -10 2 -10 -3 0 -5 -7 -9 -15 -10 -8
-1 -22 -3 -30 -4 -8 -1 -15 -5 -15 -10 0 -4 -9 -8 -19 -8 -11 0 -22 -4 -26 -9
-3 -5 -17 -8 -30 -5 -19 3 -25 0 -26 -13 0 -11 -2 -13 -6 -5 -4 10 -8 10 -19
1 -11 -9 -14 -8 -14 2 0 10 -2 11 -8 2 -6 -10 -47 -21 -97 -26 -11 -1 -23 -6
-27 -12 -5 -6 -8 -5 -8 3 0 9 -5 10 -17 4 -25 -13 -65 -5 -83 16 -8 10 -23 21
-33 25 -11 4 -15 12 -11 18 4 8 3 9 -4 5 -7 -4 -12 -2 -12 3 0 6 -4 11 -10 11
-5 0 -18 8 -28 18 -32 30 -72 62 -78 62 -11 0 -33 28 -27 34 4 3 -1 6 -9 6 -9
0 -21 7 -28 15 -7 8 -16 13 -20 10 -5 -3 -11 3 -14 12 -7 21 -46 41 -67 35z"/>
<path d="M1350 1222 c0 -15 -2 -15 -10 -2 -8 12 -10 9 -10 -12 0 -16 -5 -28
-11 -28 -5 0 -8 -4 -4 -9 3 -6 -2 -14 -11 -19 -9 -5 -15 -11 -14 -13 0 -2 -5
-17 -12 -34 -13 -30 -19 -33 -95 -37 -22 -2 -39 -7 -36 -12 3 -4 -4 -5 -16 -1
-12 4 -21 2 -21 -4 0 -6 -3 -10 -7 -10 -22 4 -20 -4 10 -34 18 -19 35 -32 39
-30 4 2 5 -3 2 -11 -3 -9 -1 -16 6 -16 15 0 41 -26 33 -34 -4 -3 -1 -6 6 -6
15 0 12 -48 -4 -69 -8 -12 -7 -13 5 -6 12 6 12 5 3 -5 -6 -7 -9 -19 -6 -28 4
-10 2 -13 -6 -8 -14 9 -11 -16 4 -26 6 -5 6 -8 -2 -8 -6 0 -9 -8 -6 -19 3 -13
11 -17 24 -14 10 3 19 10 19 15 0 5 5 6 10 3 6 -3 10 -1 10 5 0 7 7 10 15 6 8
-3 15 -1 15 5 0 6 5 7 10 4 6 -3 10 -1 10 5 0 6 4 9 9 6 5 -4 11 -2 13 4 4 13
48 22 48 9 0 -5 5 -9 11 -9 5 0 7 6 4 13 -4 6 -1 5 7 -3 7 -9 29 -22 48 -30
19 -8 41 -21 48 -30 11 -12 12 -12 6 0 -7 13 -5 13 9 1 12 -9 17 -10 17 -2 0
7 5 9 13 5 9 -6 9 -5 0 8 -7 8 -10 18 -6 21 3 4 1 7 -7 7 -9 0 -10 3 -1 13 6
8 7 17 1 23 -5 5 -11 31 -13 58 -3 40 1 53 18 72 12 13 27 24 33 24 6 0 14 5
18 12 5 7 2 9 -7 3 -8 -4 -2 3 14 16 15 13 29 33 31 45 4 18 0 20 -21 16 -16
-3 -24 -1 -20 5 3 5 0 10 -8 10 -8 0 -11 -5 -8 -10 4 -6 1 -7 -6 -3 -7 5 -27
10 -44 13 -18 3 -34 9 -35 14 -3 6 -9 5 -17 -1 -10 -9 -15 -4 -20 20 -4 16
-10 30 -13 30 -9 0 -32 50 -32 68 0 7 -5 10 -12 6 -7 -5 -9 -2 -5 9 3 9 0 18
-9 21 -9 3 -14 -1 -14 -12z"/>
<path d="M1661 683 c-6 -10 -11 -12 -11 -6 0 18 -50 -6 -50 -24 0 -7 -8 -13
-17 -14 -10 0 -13 -3 -6 -5 12 -6 -37 -60 -50 -56 -5 1 -6 -1 -3 -6 8 -13 -33
-54 -46 -46 -6 4 -8 3 -5 -3 9 -14 -51 -66 -65 -57 -7 4 -8 3 -4 -4 4 -7 1
-12 -8 -12 -9 0 -16 -7 -16 -16 0 -13 -3 -14 -13 -5 -10 8 -17 7 -25 -1 -9 -9
-12 -9 -12 2 0 7 -3 11 -6 7 -7 -6 -21 3 -70 50 -19 17 -34 29 -34 26 0 -2 -7
2 -15 11 -8 8 -15 20 -15 27 0 7 -3 9 -7 6 -7 -8 -39 34 -35 46 1 5 -1 6 -6 3
-5 -3 -15 6 -22 19 -7 13 -16 22 -20 20 -4 -3 -7 3 -6 13 0 9 -5 16 -11 14 -7
-1 -13 2 -13 7 0 11 -60 8 -79 -3 -9 -6 -12 -5 -8 1 4 5 -6 10 -23 10 -16 0
-27 -5 -23 -10 3 -5 -4 -4 -15 2 -28 15 -45 14 -36 -1 6 -10 4 -10 -7 0 -15
14 -33 17 -25 4 3 -5 -1 -9 -9 -9 -8 0 -12 3 -10 7 2 4 -14 7 -35 6 -22 0 -40
-5 -40 -11 0 -5 -4 -4 -9 4 -7 10 -13 11 -31 1 -13 -7 -20 -8 -16 -2 4 7 -5
10 -23 10 -18 -1 -28 -5 -24 -11 4 -6 1 -7 -8 -2 -20 13 -49 13 -49 1 0 -6 -4
-5 -8 2 -7 10 -15 10 -36 2 -18 -7 -25 -7 -21 0 4 6 -5 10 -24 8 -21 -1 -27
-6 -21 -14 6 -6 8 -13 5 -16 -3 -2 8 -5 23 -5 57 -2 94 -10 103 -24 7 -12 9
-12 9 1 0 13 1 13 10 0 7 -11 10 -11 10 -2 0 7 5 10 10 7 6 -4 8 -10 5 -15 -3
-4 3 -7 12 -5 10 1 24 -3 32 -9 12 -9 13 -8 6 4 -8 13 -6 13 8 2 9 -8 21 -11
27 -7 5 3 10 2 10 -4 0 -6 7 -8 15 -5 8 4 15 1 15 -5 0 -6 7 -8 15 -5 8 3 20
2 27 -2 14 -9 19 -11 44 -13 9 -1 12 -6 8 -13 -6 -10 -5 -10 8 -1 12 11 20 8
46 -16 19 -19 26 -32 19 -35 -7 -2 -4 -5 6 -5 9 -1 17 -8 17 -16 0 -8 5 -15
11 -15 5 0 7 6 3 13 -4 7 -3 9 2 4 5 -5 9 -14 9 -20 1 -7 7 -11 14 -9 7 1 10
-2 7 -7 -3 -5 20 -35 51 -66 32 -32 57 -62 55 -66 -1 -5 5 -9 13 -9 9 0 18 -7
22 -15 3 -9 19 -23 35 -31 16 -8 26 -20 22 -26 -4 -6 -3 -8 3 -5 6 4 19 0 29
-8 10 -8 27 -15 37 -15 10 0 16 -4 13 -9 -4 -5 14 -9 39 -9 25 0 45 4 45 9 0
6 5 7 10 4 6 -3 10 -1 10 4 0 6 7 11 15 11 8 0 15 5 15 11 0 5 5 7 10 4 6 -3
10 -1 10 5 0 6 5 8 10 5 6 -3 10 1 10 10 0 9 4 14 9 11 5 -3 17 5 27 19 10 13
21 22 26 19 4 -3 8 0 8 6 0 6 5 8 12 4 8 -5 9 -2 5 9 -4 10 -1 17 6 17 7 0 19
9 27 20 8 11 20 20 27 20 7 0 12 6 11 13 -2 6 3 11 9 10 7 -2 12 0 10 5 -3 11
39 62 47 55 3 -3 6 1 6 9 0 9 10 23 23 32 12 9 15 14 7 11 -8 -4 -6 1 4 9 11
9 24 16 29 16 4 0 5 5 2 10 -3 6 -3 10 2 11 4 0 17 3 28 5 11 2 28 5 38 6 9 1
17 6 17 10 0 5 10 4 22 -3 18 -10 20 -9 14 6 -4 12 -2 16 7 12 8 -3 20 -1 28
3 8 6 16 4 21 -3 6 -9 8 -9 8 1 0 7 5 10 10 7 6 -3 10 -1 10 5 0 6 5 8 10 5 6
-4 17 -2 25 5 10 8 15 8 20 0 5 -8 13 -6 25 5 10 9 24 14 30 10 6 -4 17 -2 24
4 7 6 27 12 45 13 18 1 36 8 38 15 3 7 9 13 15 13 5 0 6 -5 2 -12 -4 -7 -3 -8
5 -4 6 4 9 11 6 16 -6 10 -66 7 -84 -4 -10 -6 -12 -5 -7 2 4 7 2 12 -3 12 -6
0 -11 -6 -11 -12 0 -8 -3 -9 -8 -3 -10 14 -74 17 -66 3 4 -6 0 -7 -12 -1 -24
11 -65 10 -83 -1 -10 -6 -12 -5 -7 2 9 15 1 15 -26 1 -13 -7 -18 -7 -14 -1 4
7 -5 10 -23 10 -17 -1 -28 -5 -24 -11 3 -5 -4 -4 -15 2 -20 11 -72 8 -93 -5
-7 -4 -9 -3 -5 4 4 7 -4 10 -23 10 -17 -1 -28 -5 -25 -9 3 -5 -2 -6 -10 -3 -9
3 -13 10 -10 15 3 5 3 9 0 9 -3 0 -10 -8 -15 -17z"/>
</g>
</svg>
